<?xml version="1.0" encoding="UTF-8" standalone="no"?>
<!-- Created with Inkscape (http://www.inkscape.org/) -->

<svg
   xmlns:dc="http://purl.org/dc/elements/1.1/"
   xmlns:cc="http://creativecommons.org/ns#"
   xmlns:rdf="http://www.w3.org/1999/02/22-rdf-syntax-ns#"
   xmlns:svg="http://www.w3.org/2000/svg"
   xmlns="http://www.w3.org/2000/svg"
   xmlns:xlink="http://www.w3.org/1999/xlink"
   xmlns:sodipodi="http://sodipodi.sourceforge.net/DTD/sodipodi-0.dtd"
   xmlns:inkscape="http://www.inkscape.org/namespaces/inkscape"
   width="55.404068mm"
   height="46.038063mm"
   viewBox="0 0 55.404067 46.038063"
   version="1.1"
   id="svg8"
   sodipodi:docname="orinoco-short.svg"
   inkscape:version="0.92.4 (5da689c313, 2019-01-14)">
  <defs
     id="defs2">
    <linearGradient
       inkscape:collect="always"
       id="linearGradient6056-7-1">
      <stop
         style="stop-color:#e68a08;stop-opacity:1;"
         offset="0"
         id="stop6052" />
      <stop
         style="stop-color:#955eee;stop-opacity:1"
         offset="1"
         id="stop6054" />
    </linearGradient>
    <linearGradient
       inkscape:collect="always"
       xlink:href="#linearGradient6056-7-1"
       id="linearGradient6076"
       gradientUnits="userSpaceOnUse"
       x1="39.425423"
       y1="32.019089"
       x2="159.42543"
       y2="72.019089" />
  </defs>
  <sodipodi:namedview
     id="base"
     pagecolor="#ffffff"
     bordercolor="#666666"
     borderopacity="1.0"
     inkscape:pageopacity="0.0"
     inkscape:pageshadow="2"
     inkscape:zoom="1.2418198"
     inkscape:cx="177.11977"
     inkscape:cy="171.40241"
     inkscape:document-units="mm"
     inkscape:current-layer="layer1"
     showgrid="true"
     inkscape:window-width="1920"
     inkscape:window-height="1017"
     inkscape:window-x="1912"
     inkscape:window-y="-8"
     inkscape:window-maximized="1">
    <inkscape:grid
       type="xygrid"
       id="grid4529"
       originx="105.68145"
       originy="-346.08009" />
  </sodipodi:namedview>
  <metadata
     id="metadata5">
    <rdf:RDF>
      <cc:Work
         rdf:about="">
        <dc:format>image/svg+xml</dc:format>
        <dc:type
           rdf:resource="http://purl.org/dc/dcmitype/StillImage" />
        <dc:title></dc:title>
      </cc:Work>
    </rdf:RDF>
  </metadata>
  <g
     inkscape:label="Calque 1"
     inkscape:groupmode="layer"
     id="layer1"
     transform="translate(105.68146,95.118152)">
    <path
       style="opacity:1;fill:#ffffff;fill-opacity:1;stroke:none;stroke-width:14.28661346;stroke-linecap:butt;stroke-linejoin:round;stroke-miterlimit:4;stroke-dasharray:none;stroke-opacity:1"
       d="M 3.2334551,253.17579 V 82.818646 H 381.44774 759.66203 V 253.17579 423.53293 H 381.44774 3.2334551 Z m 62.3443709,91.51374 c 4.822668,-2.06936 9.084201,-8.70628 9.084201,-14.14778 0,-3.17795 -3.30192,-9.49084 -6.067417,-11.60019 -1.352544,-1.03164 -4.076403,-2.39801 -6.05302,-3.03639 -3.317361,-1.07138 -3.870338,-1.07138 -7.187698,0 -7.551047,2.43873 -11.406151,7.53105 -11.406151,15.06676 0,6.22124 2.730783,10.73677 8.214286,13.58286 2.685862,1.39403 10.302715,1.47053 13.415799,0.13474 z m 123.021354,-0.84225 c 5.60233,-3.28318 8.56696,-10.81029 6.81716,-17.30854 -1.17043,-4.34665 -5.81167,-8.88576 -10.67573,-10.44082 -3.65326,-1.16795 -4.06407,-1.16672 -8.03956,0.0242 -11.77509,3.52719 -15.29351,17.69563 -6.42917,25.88985 3.42975,3.17048 4.55625,3.56492 10.33438,3.6186 3.99085,0.0371 5.43754,-0.28567 7.99292,-1.78322 z M 128.5938,326.39007 h 35.08032 l 1.53369,-3.33377 c 0.84352,-1.83358 1.36827,-3.60143 1.16608,-3.92858 -0.54686,-0.88483 -92.953199,-0.76133 -93.500964,0.12498 -0.244662,0.39587 0.0578,1.2224 0.672129,1.83673 0.614336,0.61434 1.116972,1.57615 1.116972,2.13738 0,0.56122 0.638142,1.65855 1.418085,2.43849 1.292457,1.29246 2.127529,1.38738 9.425729,1.07143 4.4042,-0.19066 23.793789,-0.34666 43.087959,-0.34666 z m 250.63563,-12.88748 c 4.16692,-4.24929 4.42214,-5.96224 1.85793,-12.46966 -0.46441,-1.17857 -0.9384,-4.57952 -1.0533,-7.55767 -0.1149,-2.97815 -0.54822,-6.03172 -0.96292,-6.78571 -1.58785,-2.887 -3.69483,-11.41334 -3.69483,-14.95192 0,-4.37981 0.79295,-5.29636 6.42857,-7.43053 2.6314,-0.9965 5.59603,-1.48785 8.97858,-1.4881 4.69722,-3.3e-4 5.2461,0.16717 7.85714,2.3978 1.54393,1.31897 3.53036,2.62635 4.41428,2.90527 1.08725,0.34308 1.60715,1.06923 1.60715,2.24471 0,1.28136 0.38848,1.73758 1.47959,1.73758 1.92014,0 2.9831,-1.13154 4.36146,-4.64286 0.61687,-1.57143 1.72463,-3.17865 2.46169,-3.57163 2.90366,-1.54808 2.93464,-1.6256 2.29079,-5.73135 -0.88194,-5.62407 -3.37513,-9.23311 -7.92631,-11.47386 -5.64376,-2.77866 -10.11293,-3.98513 -12.06454,-3.25686 -0.92076,0.34359 -3.2009,0.84892 -5.06697,1.12297 -1.86607,0.27405 -3.39286,0.8 -3.39286,1.16878 0,0.36879 -0.4342,0.67052 -0.9649,0.67052 -0.5307,0 -3.1499,1.65409 -5.82045,3.67575 l -4.85555,3.67574 0.38105,-4.74717 c 0.20959,-2.61094 0.20232,-4.74717 -0.0161,-4.74717 -0.21847,0 -0.98503,0.53195 -1.70347,1.18213 -1.21547,1.09999 -1.30624,1.09999 -1.30624,0 0,-1.52974 -2.57618,-1.55734 -3.42716,-0.0367 -0.53643,0.95853 -0.87679,0.99816 -2.08619,0.24288 -1.22709,-0.76633 -1.76989,-0.67133 -3.59672,0.62949 -3.22817,2.29866 -6.60422,6.41541 -6.60422,8.05319 0,0.7974 -0.96428,2.26122 -2.14285,3.25292 -1.9254,1.62012 -2.14286,2.22167 -2.14286,5.92782 0,2.2686 0.34254,5.8561 0.76119,7.97222 1.6993,8.58924 2.98603,17.96226 3.81312,27.77606 1.24364,14.75619 3.04238,17.53582 8.30643,12.83608 l 2.42376,-2.16393 1.34849,2.62847 c 3.00115,5.84986 5.06495,6.04577 10.05727,0.95476 z m -322.680921,0.26746 c 1.985203,-0.33203 2.470982,-0.92263 4.217545,-5.12761 2.195919,-5.28684 3.203488,-7.68974 6.934643,-16.53808 1.408105,-3.33929 2.736788,-6.63393 2.952628,-7.32143 0.369867,-1.17811 4.060216,-1.25061 64.164855,-1.26053 49.97393,-0.008 64.1588,-0.20596 65.55813,-0.91376 2.39756,-1.21271 3.37786,-3.48502 5.06726,-11.74582 0.78429,-3.83501 1.86461,-9.06203 2.4007,-11.6156 0.5361,-2.55357 1.49306,-7.21429 2.12657,-10.35715 0.63352,-3.14285 1.44022,-6.67857 1.79267,-7.85714 0.35246,-1.17857 0.84985,-3.58928 1.10532,-5.35714 0.25546,-1.76786 0.7707,-4.20541 1.14498,-5.41679 0.37428,-1.21137 1.13678,-4.58637 1.69445,-7.5 0.55767,-2.91362 1.69019,-8.35107 2.5167,-12.08321 3.6597,-16.52531 3.64057,-18.46022 -0.19615,-19.8476 -1.8285,-0.66119 -22.64474,-0.86669 -87.79513,-0.86669 H 44.835342 l -0.7478,-1.96428 c -0.411289,-1.08036 -1.425948,-4.375 -2.254798,-7.32143 -1.985412,-7.05783 -2.90668,-8.76986 -5.038597,-9.36342 -2.85265,-0.79422 -20.28835,-0.70701 -22.641364,0.11326 -2.011066,0.70106 -3.776471,3.14434 -3.776471,5.22654 0,0.50005 0.9126,1.93135 2.028,3.18068 2.479082,2.77675 4.906763,2.93302 7.547357,0.4858 1.693866,-1.56983 2.564947,-1.78572 7.205004,-1.78572 3.438161,0 5.479637,0.31126 5.856056,0.89286 0.317828,0.49107 1.152902,2.98214 1.85572,5.53571 0.702819,2.55357 1.737972,6.25 2.30034,8.21429 0.562368,1.96428 1.529861,5.5 2.149984,7.85714 0.620122,2.35714 1.405748,4.92857 1.745834,5.71429 0.340087,0.78571 0.94558,2.71428 1.345542,4.28571 0.80705,3.17087 2.957008,10.76545 4.751878,16.78572 1.45996,4.89692 3.728872,12.80112 5.0234,17.5 0.541156,1.96428 1.655625,5.82142 2.4766,8.57142 1.829144,6.12705 3.148854,10.81093 4.628843,16.42858 0.620999,2.35714 1.425904,4.82017 1.788681,5.47339 0.362776,0.65322 0.868982,2.76612 1.124901,4.69533 0.365123,2.75243 0.141513,4.21843 -1.038559,6.80885 -0.827126,1.81565 -1.503866,3.49718 -1.503866,3.73671 0,0.39932 -1.370403,3.6336 -3.980195,9.39367 -0.560893,1.23794 -1.019805,2.46093 -1.019805,2.71775 0,0.54443 -2.588519,6.60072 -3.596483,8.4146 -1.352577,2.43404 -0.864206,3.61286 1.275054,3.07772 1.080357,-0.27026 2.973917,-0.66024 4.207911,-0.86662 z m 379.015851,-3.59261 c 2.1339,-0.43062 6.75789,-4.40694 8.69637,-7.4783 1.21728,-1.92867 1.0873,-5.54777 -0.31637,-8.80907 -1.80375,-4.19085 -3.25255,-28.52582 -2.34712,-39.42373 0.43076,-5.18459 0.37082,-7.60104 -0.20818,-8.39286 -0.91055,-1.24526 -2.44132,-1.49463 -2.44132,-0.39769 0,0.39286 -0.32143,0.71428 -0.71428,0.71428 -0.39286,0 -0.71429,-0.46317 -0.71429,-1.02927 0,-1.98996 -1.19981,-1.71806 -5.51591,1.25 -5.22713,3.59455 -6.79227,5.47114 -8.32235,9.97842 -1.06193,3.1282 -1.06908,5.09778 -0.0854,23.57143 1.26291,23.71878 1.69416,28.22543 2.76777,28.92398 1.69877,1.10531 5.13381,2.11573 6.15593,1.81077 0.58929,-0.1758 1.95962,-0.49889 3.04519,-0.71796 z m 140.94239,-3.85837 c 2.71755,-2.19977 6.59933,-5.65244 8.62618,-7.67259 7.18931,-7.16554 10.61145,-21.25775 6.90207,-28.42236 -0.78667,-1.51944 -1.66229,-3.70135 -1.94582,-4.84868 -0.6179,-2.50042 -6.01136,-11.00014 -8.3813,-13.20834 -0.92879,-0.8654 -3.93871,-2.88081 -6.68871,-4.4787 -4.31199,-2.50547 -5.83544,-2.9855 -11.07143,-3.48853 -3.33928,-0.32081 -7.11901,-0.79974 -8.3994,-1.06429 -1.28038,-0.26455 -2.72681,-0.15977 -3.21428,0.23284 -0.48748,0.39261 -1.93096,0.9372 -3.20775,1.21021 -1.27678,0.27301 -2.32143,0.71381 -2.32143,0.97954 0,0.26575 -0.91947,0.89017 -2.04326,1.38761 -2.66521,1.17974 -11.17136,9.44772 -14.86036,14.44429 -1.59528,2.16072 -3.97011,6.17858 -5.27742,8.92858 -2.25704,4.74785 -2.37835,5.41423 -2.40549,13.21428 -0.0249,7.17167 0.18316,8.65682 1.63954,11.70079 2.24944,4.7015 6.62446,8.86527 12.42222,11.82238 6.25597,3.19082 8.50738,3.5205 23.08378,3.38008 l 12.20187,-0.11753 z m 147.95956,2.74958 c 0.75879,-0.6875 1.62793,-1.25 1.93136,-1.25 0.5765,0 5.90071,-4.78777 10.66471,-9.59026 2.71879,-2.74072 6.15022,-8.95311 6.16408,-11.15974 0.007,-0.60893 0.40878,-1.50878 0.89985,-1.99968 1.15615,-1.1557 1.19222,-11.41654 0.0486,-13.74526 -0.4645,-0.94564 -1.391,-3.00506 -2.05892,-4.57649 -3.0595,-7.19792 -4.22243,-9.12115 -7.68243,-12.70484 -2.03486,-2.10763 -4.56322,-4.36417 -5.6185,-5.01451 -6.04429,-3.7249 -7.53886,-4.2752 -12.367,-4.55368 -2.75,-0.15862 -6.14756,-0.62837 -7.55012,-1.0439 -4.9608,-1.46972 -13.23053,2.64957 -21.02131,10.47104 -8.83596,8.87076 -13.26877,17.14261 -14.99099,27.97392 -0.54134,3.4046 1.01422,10.44472 3.26601,14.78126 1.70329,3.28021 6.77796,8.19991 9.04641,8.77015 0.88393,0.2222 1.60714,0.64176 1.60714,0.93236 0,0.8114 5.49806,3.10628 8.81939,3.68122 1.63147,0.28241 8.47795,0.46058 15.21438,0.39594 10.55716,-0.10131 12.43852,-0.29011 13.62766,-1.36753 z m -90.11719,-0.93645 c 5.44766,-1.58368 16.02781,-7.60668 19.70114,-11.21535 0.5329,-0.52351 2.41534,-1.94457 4.1832,-3.1579 3.85824,-2.64803 10,-8.76819 10,-9.96485 0,-0.47103 0.34216,-0.97046 0.76036,-1.10986 0.4182,-0.1394 0.94266,-1.61262 1.16548,-3.27381 0.38541,-2.87346 0.31571,-3.02036 -1.43309,-3.02036 -1.19427,0 -3.2915,1.2796 -5.9869,3.65281 -2.28179,2.00904 -4.95228,4.01143 -5.93443,4.44975 -0.98214,0.43832 -1.94642,0.98212 -2.14285,1.20846 -0.19643,0.22633 -2.44643,1.18736 -5,2.1356 -3.81098,1.41517 -5.98666,1.72556 -12.14286,1.73238 -6.87969,0.008 -7.76842,-0.15127 -10.74539,-1.92113 -3.72479,-2.21445 -4.14024,-2.62092 -9.95344,-9.73822 -2.92816,-3.58505 -4.30117,-5.89008 -4.30117,-7.2209 0,-2.4399 3.35905,-6.76015 9.06503,-11.65901 9.90259,-8.50187 12.93286,-10.0864 17.95946,-9.39105 3.45897,0.47849 8.65872,2.73342 9.57172,4.15087 0.79413,1.23292 0.64897,9.38117 -0.20725,11.63321 -1.30638,3.43604 0.66537,7.39581 3.68272,7.39581 0.76901,0 3.55824,-2.11795 6.19828,-4.70653 l 4.80007,-4.70654 -1.66657,-1.34951 c -1.33948,-1.08465 -1.5739,-1.7715 -1.19435,-3.49956 0.25973,-1.18253 0.76893,-2.33342 1.13156,-2.55754 0.36263,-0.22412 0.65933,-1.54318 0.65933,-2.93125 0,-1.44218 0.61222,-3.30206 1.42857,-4.33988 1.25364,-1.59374 1.42857,-2.8977 1.42857,-10.64838 v -8.83224 h -2.11633 c -1.55222,0 -2.885,0.79994 -5,3.00103 -1.58602,1.65057 -2.88367,3.21646 -2.88367,3.47976 0,0.26331 -4.1948,0.71073 -9.32178,0.99428 -17.63955,0.97557 -28.36884,6.52536 -41.07142,21.24445 -6.20579,7.19093 -8.16363,11.70781 -8.1717,18.85266 -0.006,5.73995 1.31515,9.7686 4.44832,13.55965 4.70625,5.69444 15.23116,14.11788 18.7405,14.99867 0.99256,0.24912 1.80465,0.72495 1.80465,1.05742 0,0.33247 1.20536,0.82098 2.67858,1.08558 1.47321,0.26461 3.16071,0.75155 3.75,1.08208 1.46489,0.82167 1.74437,0.80017 6.11566,-0.4706 z m -160.11824,-3.29585 c 3.71857,-3.06515 4.82539,-5.85884 3.91915,-9.8922 -0.38812,-1.72738 -1.0218,-3.5216 -1.40817,-3.98717 -0.89048,-1.07296 -2.85715,-14.45011 -3.30104,-22.45345 l -0.33837,-6.10083 3.80818,-2.11345 c 2.0945,-1.1624 4.1329,-2.23288 4.52979,-2.37883 0.39689,-0.14595 1.68589,-0.67829 2.86446,-1.18298 5.17522,-2.21614 6.0316,-2.08502 9.29925,1.42391 1.6719,1.79533 3.58763,4.78528 4.25717,6.64434 1.62628,4.51553 3.479,13.49396 3.42429,16.59438 -0.065,3.68205 -1.45637,10.2591 -3.0666,14.49565 -2.04751,5.38705 -1.9036,6.93293 0.64544,6.93293 1.45883,0 2.16852,0.41667 2.43313,1.42857 0.61312,2.34455 3.08082,1.66761 7.16055,-1.96429 2.09615,-1.86607 4.71194,-4.14956 5.81286,-5.07441 1.94256,-1.6319 1.98626,-1.82172 1.48017,-6.42857 -0.28682,-2.61086 -0.62782,-10.43355 -0.75778,-17.38375 -0.12995,-6.9502 -0.53491,-13.21806 -0.8999,-13.92858 -0.36498,-0.7105 -0.85077,-3.38112 -1.07952,-5.93469 -0.4556,-5.08598 -1.86015,-8.58641 -4.65738,-11.60714 -1.70135,-1.83729 -2.20013,-1.96429 -7.71458,-1.96429 -3.2426,0 -6.07177,0.285 -6.28705,0.63332 -0.21527,0.34832 -1.54815,0.85031 -2.96195,1.11554 -2.32572,0.43631 -7.98666,2.94211 -8.87381,3.92797 -0.19643,0.21828 -1.19733,0.82906 -2.22422,1.35727 -1.02689,0.52822 -2.69972,1.73247 -3.71739,2.67611 l -1.85032,1.71571 -0.21118,-4.8201 c -0.19353,-4.41723 -0.34895,-4.83963 -1.85962,-5.05377 -0.90663,-0.12851 -2.41816,0.27068 -3.35892,0.8871 l -1.71048,1.12075 -0.21251,-4.45853 c -0.18859,-3.95682 -0.38748,-4.48342 -1.76755,-4.67993 -1.0861,-0.15465 -2.56222,0.81464 -4.89495,3.21428 -5.96567,6.13676 -5.69286,4.56534 -5.69286,32.7921 0,18.3887 0.23344,25.52778 0.87588,26.78572 0.48173,0.94327 0.96387,3.16146 1.07143,4.92932 0.1919,3.1544 0.23999,3.21219 2.58066,3.10204 1.37236,-0.0646 2.96684,-0.73665 3.75512,-1.58276 1.73385,-1.86108 3.22232,-1.31364 3.76176,1.38353 0.58358,2.91789 3.50416,2.84828 7.16686,-0.17082 z m -164.40755,-3.32187 c 0.46128,-0.46128 1.39997,-0.83869 2.08598,-0.83869 1.88042,0 11.72996,-5.29554 15.50081,-8.33392 5.74791,-4.63138 13.68048,-13.81754 13.68048,-15.8424 0,-0.38755 0.24107,-0.81177 0.53571,-0.94273 0.63557,-0.28247 3.12972,-5.36869 4.84538,-9.88095 1.56214,-4.10852 2.23459,-18.99655 1.06465,-23.57143 -2.05401,-8.03186 -2.82596,-11.99268 -2.84922,-14.61898 -0.0321,-3.62888 -1.77823,-8.31902 -4.85802,-13.04903 -2.34821,-3.60643 -7.09537,-8.04628 -8.60319,-8.04628 -0.4018,0 -0.83769,-0.24107 -0.96865,-0.53571 -0.45745,-1.02928 -7.1479,-3.90371 -9.62121,-4.13358 -1.37181,-0.12749 -2.96131,-0.61948 -3.53223,-1.0933 -1.22436,-1.01613 -13.54791,-1.08831 -14.82445,-0.0868 -0.4574,0.35885 -1.79086,0.8825 -2.96326,1.16369 -1.97151,0.47283 -6.8005,2.6664 -11.08265,5.03428 -2.70181,1.494 -12.26041,11.75537 -16.97488,18.22288 -1.21766,1.67045 -3.98828,7.12105 -5.26469,10.35715 -0.9563,2.42453 -2.76043,14.43893 -2.76043,18.38277 0,4.46546 2.06397,19.1746 2.83285,20.18865 0.29787,0.39286 0.76549,1.67858 1.03913,2.85715 0.54973,2.3676 3.24964,8.3669 4.0182,8.92857 0.26879,0.19643 0.71797,1.09163 0.99819,1.98933 0.78724,2.5219 8.65799,9.88558 12.40038,11.60146 4.9956,2.29049 6.07094,2.72937 7.63982,3.1181 2.74468,0.68006 16.80375,-0.0126 17.6613,-0.8702 z M 431.33664,244.0459 c 1.04325,-0.89643 1.89682,-2.02143 1.89682,-2.5 0,-0.47856 0.29017,-0.87011 0.64482,-0.87011 1.13404,0 5.82423,-7.73417 6.91249,-11.39876 0.57818,-1.94693 1.36431,-3.73336 1.74696,-3.96986 1.70158,-1.05162 0.30753,-10.34567 -1.55178,-10.34567 -0.46986,0 -1.38907,-0.48396 -2.04268,-1.07548 -1.04899,-0.94932 -1.43481,-0.95254 -3.28913,-0.0275 -2.88821,1.44083 -5.57187,4.42553 -7.41414,8.24583 -0.85252,1.76785 -1.86976,3.8111 -2.26054,4.54054 -0.83464,1.55799 -1.725,16.22423 -1.08602,17.88938 0.64564,1.6825 4.23326,1.41057 6.4432,-0.48838 z"
       id="path5965"
       inkscape:connector-curvature="0"
       transform="scale(0.26458333)" />
    <path
       style="fill:url(#linearGradient6076);fill-opacity:1;stroke-width:0.99999994"
       d="M 14.246094,-0.00195313 C 5.4023016,-0.01408541 2.7393315,0.3114497 1.4960938,1.5546875 -0.52769208,3.5784355 -0.49839747,5.8576292 1.5800781,8.1542969 3.5802419,10.364489 5.8802049,10.485326 8.484375,8.515625 9.6771561,7.6134896 12.738966,7.0364758 16.425781,7.0175781 l 6,-0.029297 14.759766,51.2460939 c 8.117741,28.18594 14.755291,51.993725 14.75,52.906245 -0.0052,0.91257 -2.710423,8.11255 -6.009766,16 -3.299338,7.88743 -5.999338,14.70863 -6,15.15821 v 0.004 c -6.57e-4,0.44939 0.787498,0.59648 1.75,0.32813 0.962499,-0.26842 2.715371,-0.76367 3.896485,-1.10156 1.659722,-0.47471 3.476767,-3.896 8,-15.0625 L 59.425781,112.01953 122.62891,112 c 45.3833,-0.0122 63.91254,-0.3402 65.7207,-1.16406 1.40213,-0.63886 2.95981,-2.52242 3.51562,-4.25 2.34072,-7.275593 18.02956,-83.126047 17.52344,-84.720706 -0.7512,-2.366967 -4.53812,-2.470496 -98.39258,-2.708984 C 68.410479,19.048156 33.418438,18.809063 33.234375,18.625 33.050274,18.440899 31.813282,14.556421 30.486328,9.9921875 29.159336,5.4279166 27.478315,1.3152983 26.75,0.85351562 26.021647,0.39173295 20.394327,0.00560593 14.246094,-0.00195313 Z M 47.925781,144.59766 c -14.704403,0 -20.240831,18.77928 -8,27.13476 2.266863,1.54734 4.764876,2.25 8,2.25 8.787277,0 15.552729,-7.31768 14.669922,-15.86523 -0.824768,-7.98558 -6.8297,-13.51953 -14.669922,-13.51953 z m 121.378909,0.20507 c -2.64578,0.0181 -5.23404,0.57638 -7.07031,1.67188 -9.62274,5.74072 -9.66023,19.6635 -0.0684,25.51172 v 0.002 c 6.18883,3.77337 13.93946,2.13435 19.14062,-4.04687 5.22926,-6.21464 2.77429,-17.76027 -4.58594,-21.56641 -2.06673,-1.06885 -4.77023,-1.59036 -7.41601,-1.57227 z m -107.312502,3.17969 2.152343,3.64649 2.152344,3.64843 21.564453,-0.64062 c 11.860343,-0.35225 31.298912,-0.64466 43.197262,-0.64844 19.69784,-0.006 21.68795,-0.16245 22.25,-1.75586 0.3395,-0.96253 0.88071,-2.3125 1.20118,-3 0.46168,-0.99035 -9.08301,-1.25 -45.9668,-1.25 z"
       transform="matrix(0.26458333,0,0,0.26458333,-105.68131,-95.11755)"
       id="path6003"
       inkscape:connector-curvature="0" />
  </g>
</svg>
