<?xml version="1.0" encoding="UTF-8" standalone="no"?>
<!-- Created with Inkscape (http://www.inkscape.org/) -->

<svg
   xmlns:dc="http://purl.org/dc/elements/1.1/"
   xmlns:cc="http://creativecommons.org/ns#"
   xmlns:rdf="http://www.w3.org/1999/02/22-rdf-syntax-ns#"
   xmlns:svg="http://www.w3.org/2000/svg"
   xmlns="http://www.w3.org/2000/svg"
   xmlns:xlink="http://www.w3.org/1999/xlink"
   xmlns:sodipodi="http://sodipodi.sourceforge.net/DTD/sodipodi-0.dtd"
   xmlns:inkscape="http://www.inkscape.org/namespaces/inkscape"
   width="194.0997mm"
   height="46.038021mm"
   viewBox="0 0 194.0997 46.038021"
   version="1.1"
   id="svg8"
   sodipodi:docname="orinoco.svg"
   inkscape:version="0.92.4 (5da689c313, 2019-01-14)">
  <defs
     id="defs2">
    <linearGradient
       inkscape:collect="always"
       id="linearGradient6056-7-1">
      <stop
         style="stop-color:#e68a08;stop-opacity:1;"
         offset="0"
         id="stop6052" />
      <stop
         style="stop-color:#955eee;stop-opacity:1"
         offset="1"
         id="stop6054" />
    </linearGradient>
    <linearGradient
       inkscape:collect="always"
       xlink:href="#linearGradient6056-7-1"
       id="linearGradient6076"
       gradientUnits="userSpaceOnUse"
       x1="39.425423"
       y1="32.019089"
       x2="159.42543"
       y2="72.019089" />
  </defs>
  <sodipodi:namedview
     id="base"
     pagecolor="#ffffff"
     bordercolor="#666666"
     borderopacity="1.0"
     inkscape:pageopacity="0.0"
     inkscape:pageshadow="2"
     inkscape:zoom="1.2418198"
     inkscape:cx="177.11923"
     inkscape:cy="139.19372"
     inkscape:document-units="mm"
     inkscape:current-layer="layer1"
     showgrid="true"
     inkscape:window-width="1920"
     inkscape:window-height="1017"
     inkscape:window-x="1912"
     inkscape:window-y="-8"
     inkscape:window-maximized="1">
    <inkscape:grid
       type="xygrid"
       id="grid4529"
       originx="105.68131"
       originy="-346.07953" />
  </sodipodi:namedview>
  <metadata
     id="metadata5">
    <rdf:RDF>
      <cc:Work
         rdf:about="">
        <dc:format>image/svg+xml</dc:format>
        <dc:type
           rdf:resource="http://purl.org/dc/dcmitype/StillImage" />
      </cc:Work>
    </rdf:RDF>
  </metadata>
  <g
     inkscape:label="Calque 1"
     inkscape:groupmode="layer"
     id="layer1"
     transform="translate(105.68131,95.11755)">
    <path
       style="fill:#000000;fill-opacity:1;stroke-width:0.99999994"
       d="M 297.92578 29.537109 C 290.23865 29.521281 288.77291 29.846666 282.5957 32.929688 C 275.80276 36.320007 266.61584 45.055192 260.375 54.058594 C 251.41541 66.984223 250.52343 92.506225 258.42773 109.77148 C 263.22008 120.23935 269.08238 125.96201 278.25781 129.13281 C 303.83524 137.97173 336.98591 110.27361 336.9082 80.128906 C 336.89878 76.474345 336.00693 70.109378 334.92578 65.984375 C 333.84463 61.859376 332.95243 56.973011 332.94336 55.125 C 332.92094 50.730729 327.50864 40.66648 323.54688 37.650391 C 319.66947 34.69853 313.09363 31.31245 309.29688 30.3125 C 307.71767 29.896597 302.60078 29.546936 297.92578 29.537109 z M 285.91602 39.589844 C 286.63461 39.569576 285.59125 40.519335 282.42578 42.449219 C 279.12578 44.461129 274.51328 47.972946 272.17578 50.253906 C 269.83828 52.534855 267.92578 53.873896 267.92578 53.228516 C 267.92578 51.034515 274.22918 44.865458 278.83594 42.550781 C 282.71704 40.600715 285.19742 39.610111 285.91602 39.589844 z M 427.25195 42.091797 C 426.59827 42.024526 425.37751 42.632111 423.21094 43.953125 C 417.16993 47.636513 412.82287 60.500283 414.42188 69.964844 C 414.80697 72.244284 415.6623 73.984375 416.39844 73.984375 C 418.64816 73.984375 424.90287 66.706232 427.57031 60.984375 C 428.98049 57.959373 430.59446 54.508066 431.15625 53.314453 C 432.58159 50.286205 431.2522 43.64504 429.36523 44.369141 C 428.51579 44.69511 427.92578 44.320043 427.92578 43.453125 C 427.92578 42.604034 427.76037 42.144118 427.25195 42.091797 z M 295.34375 45.306641 C 296.20401 45.281744 296.99784 45.364184 297.69922 45.566406 C 299.19833 45.998625 301.23294 46.433159 302.21875 46.533203 C 307.20911 47.039743 314.84338 60.225253 317.53516 72.984375 C 319.52056 82.395232 318.91934 93.949398 316.11328 100.29297 C 314.02885 105.00518 310.63067 107.44844 302.92578 109.76953 C 301.00078 110.34943 297.31548 111.10882 294.73633 111.45703 C 290.32565 112.05254 289.79543 111.86333 285.82617 108.28711 C 277.91003 101.15483 274.35009 88.452826 275.12891 70.115234 C 275.42938 63.040605 276.12176 58.452467 277.19531 56.398438 C 280.08993 50.860116 289.32191 45.48092 295.34375 45.306641 z M 652.05273 57.984375 C 650.99617 57.984375 648.82984 59.46857 647.23828 61.28125 C 644.47004 64.434109 643.88888 64.623414 633.83594 65.666016 C 622.89848 66.800354 616.50545 68.903506 607.66211 74.277344 C 602.03942 77.694105 590.44729 90.627885 587.81836 96.416016 C 585.31518 101.92761 585.40689 109.04996 588.05078 114.23242 C 592.00167 121.97679 604.33953 132.22333 613.76953 135.5918 C 618.75371 137.37221 619.99798 137.30314 626.41992 134.90039 C 632.55444 132.60516 649.6853 120.30117 654.70508 114.58398 C 657.83974 111.01378 659.73702 106.46356 658.57617 105.30273 C 657.91324 104.63981 654.66143 106.63988 650.92578 110.00781 C 646.27481 114.20092 636.09166 118.12706 628.3457 118.71289 C 622.23666 119.17491 620.4224 118.91977 616.58984 117.06445 C 611.01731 114.36683 600.92578 102.41507 600.92578 98.513672 C 600.92578 95.308145 611.18843 85.012039 619.18164 80.199219 C 623.84195 77.393177 625.23021 77.010438 628.70703 77.566406 C 630.94561 77.924365 634.22544 79.096267 635.99414 80.171875 L 639.20898 82.128906 L 638.56445 90.519531 C 637.95863 98.401211 638.04804 98.979863 640.05273 100.05273 C 641.9352 101.06021 642.72364 100.65915 646.73047 96.652344 C 650.43879 92.943894 651.05286 91.843662 650.07227 90.662109 C 648.76515 89.087161 649.99967 81.851957 652.40625 76.984375 C 653.08604 75.609375 653.71751 70.771875 653.80859 66.234375 C 653.95993 58.706486 653.80564 57.984375 652.05273 57.984375 z M 454.72266 63.396484 C 453.9641 63.292703 451.71314 64.936824 449.51172 67.234375 C 445.56396 71.354464 445.19403 72.209881 444.5918 78.587891 C 442.92801 96.20874 444.89201 132.82088 447.54883 133.69727 C 448.16708 133.90121 450.03475 132.92203 451.69922 131.52148 L 454.72656 128.97461 L 455.77344 131.98047 C 457.16687 135.97779 459.70384 135.84048 463.86914 131.54297 C 467.53392 127.7619 467.55314 127.24397 464.42188 115.98438 C 463.58063 112.95937 462.61158 105.96742 462.26953 100.44727 L 461.64844 90.412109 L 467.53711 87.306641 C 476.63836 82.506573 479.07075 82.283662 482.71289 85.925781 C 489.8319 93.044812 492.33769 110.31228 488.12109 123.19336 C 485.4018 131.50042 485.39422 131.32004 488.4375 130.73828 C 490.28977 130.3842 490.88101 130.6544 490.6875 131.76758 C 490.14431 134.89178 492.85815 133.89639 498.85547 128.77344 C 504.97176 123.54888 505.03874 123.43522 504.3418 119.48438 C 503.95368 117.28437 503.52184 110.43931 503.38086 104.27148 C 502.95271 85.563473 500.74483 73.940919 496.9707 70.525391 C 492.33224 66.327609 475.39119 70.672871 466.17969 78.423828 C 464.50585 79.832288 462.973 80.984375 462.77344 80.984375 C 462.57361 80.984375 462.5747 78.918168 462.77539 76.392578 C 463.23464 70.618639 461.93309 69.094565 458.47656 71.359375 L 455.92578 73.03125 L 455.92578 68.566406 C 455.92578 66.111187 455.4432 63.803913 454.85352 63.439453 C 454.81666 63.416676 454.77323 63.403403 454.72266 63.396484 z M 386.26172 72.314453 C 381.43126 72.238827 374.49996 74.883365 369.07422 79.023438 L 363.72461 83.107422 L 364.07422 78.115234 C 364.4044 73.415203 364.32369 73.216045 362.67578 74.708984 C 361.07545 76.158909 360.92578 76.154114 360.92578 74.640625 C 360.92578 72.562274 359.5623 72.512279 357.88672 74.53125 C 356.96887 75.63717 356.39886 75.752037 355.89062 74.929688 C 355.37185 74.090258 354.63332 74.070966 353.16016 74.859375 C 350.58775 76.236087 345.92578 81.7439 345.92578 83.40625 C 345.92578 84.103811 345.02578 85.488885 343.92578 86.484375 C 341.39814 88.771862 341.38542 92.012307 343.85156 106.87305 C 344.91133 113.25915 346.06703 122.30938 346.41992 126.98438 C 347.15968 136.78457 348.52797 141.98438 350.36719 141.98438 C 351.07537 141.98438 352.8008 141.08438 354.19922 139.98438 C 357.05747 137.73607 357.92578 137.51113 357.92578 139.01953 C 357.92578 139.58888 358.65279 141.16388 359.54102 142.51953 C 361.82166 146.00024 364.14233 145.59394 368.30859 140.98242 C 372.0247 136.86912 372.47363 135.86621 371.17578 134.56836 C 370.76328 134.15586 370.40354 133.519 370.38086 133.15234 C 370.35675 132.78567 369.75492 130.14459 369.04297 127.2832 C 368.33094 124.4218 367.99073 121.68952 368.28516 121.21289 C 368.57973 120.73626 367.71899 116.77799 366.37305 112.41602 C 365.02712 108.05403 363.92586 102.40219 363.92578 99.857422 C 363.92567 95.266691 363.96444 95.213991 368.86133 93.107422 C 375.97595 90.046798 384.21404 90.204886 388.51367 93.484375 C 390.31639 94.859375 392.27268 95.984375 392.85938 95.984375 C 393.44607 95.984375 393.92578 96.884374 393.92578 97.984375 C 393.92578 101.61875 396.9769 100.12427 399.0293 95.484375 C 400.12415 93.009374 401.6734 90.984375 402.47266 90.984375 C 404.3922 90.984375 404.34498 87.075781 402.36719 82.132812 C 400.70695 77.983511 394.66302 73.882707 388.19141 72.515625 C 387.59754 72.390176 386.95178 72.325257 386.26172 72.314453 z M 695.66211 72.369141 C 693.01055 72.371379 691.51861 72.940525 688.40234 74.367188 C 682.49139 77.073329 672.307 86.767516 668.43359 93.376953 C 660.74343 106.50122 660.73269 119.68478 668.4043 128.7832 C 671.48582 132.43783 679.52656 136.94521 684.92383 138.04297 L 684.92578 138.04297 C 686.8525 138.43417 693.05689 138.80593 698.71484 138.86914 C 710.9881 139.00631 713.39463 138.0358 722.52344 129.26562 C 727.10986 124.85938 729.18243 121.92737 730.87891 117.44531 C 734.42331 108.08116 734.47302 105.39648 731.25195 97.294922 C 724.95178 81.448901 716.76652 74.559321 702.28711 72.914062 C 699.26121 72.570231 697.25304 72.367798 695.66211 72.369141 z M 543.86133 72.414062 C 541.20571 72.419919 539.67268 72.887508 537.16211 73.998047 C 530.65274 76.877457 518.98013 89.094379 514.98438 97.210938 C 509.26795 108.82265 509.95593 121.19417 516.73047 128.61133 C 520.48747 132.72475 527.76785 136.86723 533.07227 137.91016 C 540.22464 139.31641 556.60813 139.14511 560.20703 137.62695 C 561.97683 136.88038 566.64003 133.16787 570.56836 129.37695 C 576.2375 123.90611 578.16978 121.24675 579.9375 116.48438 C 582.52338 109.5177 582.74061 103.55509 580.58008 98.830078 C 579.73894 96.990578 578.40116 93.909375 577.60742 91.984375 C 575.12937 85.974386 570.43073 80.615174 564.56445 77.109375 C 559.92266 74.335383 557.38402 73.58045 550.30859 72.863281 C 547.45164 72.573702 545.4547 72.410549 543.86133 72.414062 z M 425.34375 73.164062 C 424.66214 73.212808 423.18966 74.234515 420.02539 76.507812 C 412.38712 81.995361 411.95577 83.895393 412.9668 107.57031 C 414.04128 132.7315 414.63681 136.91298 417.31445 138.04297 L 417.31641 138.04297 C 422.04883 140.04011 428.92884 136.93132 432.05859 131.38086 C 433.57675 128.68832 433.56121 127.74846 431.84375 117.98438 C 430.55497 110.65739 429.98739 102.42265 429.96094 90.734375 C 429.94128 81.521875 429.56501 73.984375 429.125 73.984375 C 428.68503 73.984375 427.78498 74.525547 427.125 75.185547 C 426.19183 76.118879 425.92578 76.007769 425.92578 74.685547 C 425.92578 73.678068 425.87389 73.126149 425.34375 73.164062 z M 538.03906 88.080078 C 544.73107 88.218126 554.2644 92.350702 560.98047 98.632812 C 569.58003 106.67671 571.05942 112.00501 566.07422 116.99023 C 564.44074 118.6237 560.91565 120.49124 557.82422 121.36133 C 541.92522 125.83618 530.52543 122.98571 525.87109 113.37109 C 524.15224 109.82055 523.81199 107.83484 524.30469 104.24023 C 525.04733 98.822074 529.00183 91.636435 532.50391 89.341797 C 533.8932 88.431492 535.80839 88.034062 538.03906 88.080078 z M 689.35547 88.242188 C 690.1052 88.250315 690.91406 88.297029 691.79297 88.376953 C 698.99626 89.031991 706.90467 93.076518 713.41797 99.435547 C 725.25912 110.99619 721.20981 119.94816 702.78711 122.9375 C 699.28806 123.50526 696.20093 123.92328 695.92578 123.86719 C 695.65078 123.81108 693.46871 123.38027 691.07812 122.91016 C 677.27185 120.19508 672.01874 108.68997 678.72461 95.853516 C 681.76488 90.033751 684.10734 88.185293 689.35547 88.242188 z M 324.92578 99.615234 C 324.92578 99.855045 323.82991 102.2137 322.49023 104.85742 C 319.68991 110.3836 314.34857 115.4329 308.49023 118.09375 C 306.25427 119.10932 302.62578 119.91941 300.42578 119.89258 L 296.42578 119.84375 L 299.98047 118.53516 C 307.50748 115.76215 311.66033 112.9414 318.17578 106.18164 C 321.88828 102.32993 324.92578 99.375423 324.92578 99.615234 z "
       transform="matrix(0.26458333,0,0,0.26458333,-105.68131,-95.11755)"
       id="path5967" />
    <path
       style="opacity:1;fill:#ffffff;fill-opacity:1;stroke:none;stroke-width:14.28661346;stroke-linecap:butt;stroke-linejoin:round;stroke-miterlimit:4;stroke-dasharray:none;stroke-opacity:1"
       d="M 3.2334551,253.17579 V 82.818646 H 381.44774 759.66203 V 253.17579 423.53293 H 381.44774 3.2334551 Z m 62.3443709,91.51374 c 4.822668,-2.06936 9.084201,-8.70628 9.084201,-14.14778 0,-3.17795 -3.30192,-9.49084 -6.067417,-11.60019 -1.352544,-1.03164 -4.076403,-2.39801 -6.05302,-3.03639 -3.317361,-1.07138 -3.870338,-1.07138 -7.187698,0 -7.551047,2.43873 -11.406151,7.53105 -11.406151,15.06676 0,6.22124 2.730783,10.73677 8.214286,13.58286 2.685862,1.39403 10.302715,1.47053 13.415799,0.13474 z m 123.021354,-0.84225 c 5.60233,-3.28318 8.56696,-10.81029 6.81716,-17.30854 -1.17043,-4.34665 -5.81167,-8.88576 -10.67573,-10.44082 -3.65326,-1.16795 -4.06407,-1.16672 -8.03956,0.0242 -11.77509,3.52719 -15.29351,17.69563 -6.42917,25.88985 3.42975,3.17048 4.55625,3.56492 10.33438,3.6186 3.99085,0.0371 5.43754,-0.28567 7.99292,-1.78322 z M 128.5938,326.39007 h 35.08032 l 1.53369,-3.33377 c 0.84352,-1.83358 1.36827,-3.60143 1.16608,-3.92858 -0.54686,-0.88483 -92.953199,-0.76133 -93.500964,0.12498 -0.244662,0.39587 0.0578,1.2224 0.672129,1.83673 0.614336,0.61434 1.116972,1.57615 1.116972,2.13738 0,0.56122 0.638142,1.65855 1.418085,2.43849 1.292457,1.29246 2.127529,1.38738 9.425729,1.07143 4.4042,-0.19066 23.793789,-0.34666 43.087959,-0.34666 z m 250.63563,-12.88748 c 4.16692,-4.24929 4.42214,-5.96224 1.85793,-12.46966 -0.46441,-1.17857 -0.9384,-4.57952 -1.0533,-7.55767 -0.1149,-2.97815 -0.54822,-6.03172 -0.96292,-6.78571 -1.58785,-2.887 -3.69483,-11.41334 -3.69483,-14.95192 0,-4.37981 0.79295,-5.29636 6.42857,-7.43053 2.6314,-0.9965 5.59603,-1.48785 8.97858,-1.4881 4.69722,-3.3e-4 5.2461,0.16717 7.85714,2.3978 1.54393,1.31897 3.53036,2.62635 4.41428,2.90527 1.08725,0.34308 1.60715,1.06923 1.60715,2.24471 0,1.28136 0.38848,1.73758 1.47959,1.73758 1.92014,0 2.9831,-1.13154 4.36146,-4.64286 0.61687,-1.57143 1.72463,-3.17865 2.46169,-3.57163 2.90366,-1.54808 2.93464,-1.6256 2.29079,-5.73135 -0.88194,-5.62407 -3.37513,-9.23311 -7.92631,-11.47386 -5.64376,-2.77866 -10.11293,-3.98513 -12.06454,-3.25686 -0.92076,0.34359 -3.2009,0.84892 -5.06697,1.12297 -1.86607,0.27405 -3.39286,0.8 -3.39286,1.16878 0,0.36879 -0.4342,0.67052 -0.9649,0.67052 -0.5307,0 -3.1499,1.65409 -5.82045,3.67575 l -4.85555,3.67574 0.38105,-4.74717 c 0.20959,-2.61094 0.20232,-4.74717 -0.0161,-4.74717 -0.21847,0 -0.98503,0.53195 -1.70347,1.18213 -1.21547,1.09999 -1.30624,1.09999 -1.30624,0 0,-1.52974 -2.57618,-1.55734 -3.42716,-0.0367 -0.53643,0.95853 -0.87679,0.99816 -2.08619,0.24288 -1.22709,-0.76633 -1.76989,-0.67133 -3.59672,0.62949 -3.22817,2.29866 -6.60422,6.41541 -6.60422,8.05319 0,0.7974 -0.96428,2.26122 -2.14285,3.25292 -1.9254,1.62012 -2.14286,2.22167 -2.14286,5.92782 0,2.2686 0.34254,5.8561 0.76119,7.97222 1.6993,8.58924 2.98603,17.96226 3.81312,27.77606 1.24364,14.75619 3.04238,17.53582 8.30643,12.83608 l 2.42376,-2.16393 1.34849,2.62847 c 3.00115,5.84986 5.06495,6.04577 10.05727,0.95476 z m -322.680921,0.26746 c 1.985203,-0.33203 2.470982,-0.92263 4.217545,-5.12761 2.195919,-5.28684 3.203488,-7.68974 6.934643,-16.53808 1.408105,-3.33929 2.736788,-6.63393 2.952628,-7.32143 0.369867,-1.17811 4.060216,-1.25061 64.164855,-1.26053 49.97393,-0.008 64.1588,-0.20596 65.55813,-0.91376 2.39756,-1.21271 3.37786,-3.48502 5.06726,-11.74582 0.78429,-3.83501 1.86461,-9.06203 2.4007,-11.6156 0.5361,-2.55357 1.49306,-7.21429 2.12657,-10.35715 0.63352,-3.14285 1.44022,-6.67857 1.79267,-7.85714 0.35246,-1.17857 0.84985,-3.58928 1.10532,-5.35714 0.25546,-1.76786 0.7707,-4.20541 1.14498,-5.41679 0.37428,-1.21137 1.13678,-4.58637 1.69445,-7.5 0.55767,-2.91362 1.69019,-8.35107 2.5167,-12.08321 3.6597,-16.52531 3.64057,-18.46022 -0.19615,-19.8476 -1.8285,-0.66119 -22.64474,-0.86669 -87.79513,-0.86669 H 44.835342 l -0.7478,-1.96428 c -0.411289,-1.08036 -1.425948,-4.375 -2.254798,-7.32143 -1.985412,-7.05783 -2.90668,-8.76986 -5.038597,-9.36342 -2.85265,-0.79422 -20.28835,-0.70701 -22.641364,0.11326 -2.011066,0.70106 -3.776471,3.14434 -3.776471,5.22654 0,0.50005 0.9126,1.93135 2.028,3.18068 2.479082,2.77675 4.906763,2.93302 7.547357,0.4858 1.693866,-1.56983 2.564947,-1.78572 7.205004,-1.78572 3.438161,0 5.479637,0.31126 5.856056,0.89286 0.317828,0.49107 1.152902,2.98214 1.85572,5.53571 0.702819,2.55357 1.737972,6.25 2.30034,8.21429 0.562368,1.96428 1.529861,5.5 2.149984,7.85714 0.620122,2.35714 1.405748,4.92857 1.745834,5.71429 0.340087,0.78571 0.94558,2.71428 1.345542,4.28571 0.80705,3.17087 2.957008,10.76545 4.751878,16.78572 1.45996,4.89692 3.728872,12.80112 5.0234,17.5 0.541156,1.96428 1.655625,5.82142 2.4766,8.57142 1.829144,6.12705 3.148854,10.81093 4.628843,16.42858 0.620999,2.35714 1.425904,4.82017 1.788681,5.47339 0.362776,0.65322 0.868982,2.76612 1.124901,4.69533 0.365123,2.75243 0.141513,4.21843 -1.038559,6.80885 -0.827126,1.81565 -1.503866,3.49718 -1.503866,3.73671 0,0.39932 -1.370403,3.6336 -3.980195,9.39367 -0.560893,1.23794 -1.019805,2.46093 -1.019805,2.71775 0,0.54443 -2.588519,6.60072 -3.596483,8.4146 -1.352577,2.43404 -0.864206,3.61286 1.275054,3.07772 1.080357,-0.27026 2.973917,-0.66024 4.207911,-0.86662 z m 379.015851,-3.59261 c 2.1339,-0.43062 6.75789,-4.40694 8.69637,-7.4783 1.21728,-1.92867 1.0873,-5.54777 -0.31637,-8.80907 -1.80375,-4.19085 -3.25255,-28.52582 -2.34712,-39.42373 0.43076,-5.18459 0.37082,-7.60104 -0.20818,-8.39286 -0.91055,-1.24526 -2.44132,-1.49463 -2.44132,-0.39769 0,0.39286 -0.32143,0.71428 -0.71428,0.71428 -0.39286,0 -0.71429,-0.46317 -0.71429,-1.02927 0,-1.98996 -1.19981,-1.71806 -5.51591,1.25 -5.22713,3.59455 -6.79227,5.47114 -8.32235,9.97842 -1.06193,3.1282 -1.06908,5.09778 -0.0854,23.57143 1.26291,23.71878 1.69416,28.22543 2.76777,28.92398 1.69877,1.10531 5.13381,2.11573 6.15593,1.81077 0.58929,-0.1758 1.95962,-0.49889 3.04519,-0.71796 z m 140.94239,-3.85837 c 2.71755,-2.19977 6.59933,-5.65244 8.62618,-7.67259 7.18931,-7.16554 10.61145,-21.25775 6.90207,-28.42236 -0.78667,-1.51944 -1.66229,-3.70135 -1.94582,-4.84868 -0.6179,-2.50042 -6.01136,-11.00014 -8.3813,-13.20834 -0.92879,-0.8654 -3.93871,-2.88081 -6.68871,-4.4787 -4.31199,-2.50547 -5.83544,-2.9855 -11.07143,-3.48853 -3.33928,-0.32081 -7.11901,-0.79974 -8.3994,-1.06429 -1.28038,-0.26455 -2.72681,-0.15977 -3.21428,0.23284 -0.48748,0.39261 -1.93096,0.9372 -3.20775,1.21021 -1.27678,0.27301 -2.32143,0.71381 -2.32143,0.97954 0,0.26575 -0.91947,0.89017 -2.04326,1.38761 -2.66521,1.17974 -11.17136,9.44772 -14.86036,14.44429 -1.59528,2.16072 -3.97011,6.17858 -5.27742,8.92858 -2.25704,4.74785 -2.37835,5.41423 -2.40549,13.21428 -0.0249,7.17167 0.18316,8.65682 1.63954,11.70079 2.24944,4.7015 6.62446,8.86527 12.42222,11.82238 6.25597,3.19082 8.50738,3.5205 23.08378,3.38008 l 12.20187,-0.11753 z m 147.95956,2.74958 c 0.75879,-0.6875 1.62793,-1.25 1.93136,-1.25 0.5765,0 5.90071,-4.78777 10.66471,-9.59026 2.71879,-2.74072 6.15022,-8.95311 6.16408,-11.15974 0.007,-0.60893 0.40878,-1.50878 0.89985,-1.99968 1.15615,-1.1557 1.19222,-11.41654 0.0486,-13.74526 -0.4645,-0.94564 -1.391,-3.00506 -2.05892,-4.57649 -3.0595,-7.19792 -4.22243,-9.12115 -7.68243,-12.70484 -2.03486,-2.10763 -4.56322,-4.36417 -5.6185,-5.01451 -6.04429,-3.7249 -7.53886,-4.2752 -12.367,-4.55368 -2.75,-0.15862 -6.14756,-0.62837 -7.55012,-1.0439 -4.9608,-1.46972 -13.23053,2.64957 -21.02131,10.47104 -8.83596,8.87076 -13.26877,17.14261 -14.99099,27.97392 -0.54134,3.4046 1.01422,10.44472 3.26601,14.78126 1.70329,3.28021 6.77796,8.19991 9.04641,8.77015 0.88393,0.2222 1.60714,0.64176 1.60714,0.93236 0,0.8114 5.49806,3.10628 8.81939,3.68122 1.63147,0.28241 8.47795,0.46058 15.21438,0.39594 10.55716,-0.10131 12.43852,-0.29011 13.62766,-1.36753 z m -90.11719,-0.93645 c 5.44766,-1.58368 16.02781,-7.60668 19.70114,-11.21535 0.5329,-0.52351 2.41534,-1.94457 4.1832,-3.1579 3.85824,-2.64803 10,-8.76819 10,-9.96485 0,-0.47103 0.34216,-0.97046 0.76036,-1.10986 0.4182,-0.1394 0.94266,-1.61262 1.16548,-3.27381 0.38541,-2.87346 0.31571,-3.02036 -1.43309,-3.02036 -1.19427,0 -3.2915,1.2796 -5.9869,3.65281 -2.28179,2.00904 -4.95228,4.01143 -5.93443,4.44975 -0.98214,0.43832 -1.94642,0.98212 -2.14285,1.20846 -0.19643,0.22633 -2.44643,1.18736 -5,2.1356 -3.81098,1.41517 -5.98666,1.72556 -12.14286,1.73238 -6.87969,0.008 -7.76842,-0.15127 -10.74539,-1.92113 -3.72479,-2.21445 -4.14024,-2.62092 -9.95344,-9.73822 -2.92816,-3.58505 -4.30117,-5.89008 -4.30117,-7.2209 0,-2.4399 3.35905,-6.76015 9.06503,-11.65901 9.90259,-8.50187 12.93286,-10.0864 17.95946,-9.39105 3.45897,0.47849 8.65872,2.73342 9.57172,4.15087 0.79413,1.23292 0.64897,9.38117 -0.20725,11.63321 -1.30638,3.43604 0.66537,7.39581 3.68272,7.39581 0.76901,0 3.55824,-2.11795 6.19828,-4.70653 l 4.80007,-4.70654 -1.66657,-1.34951 c -1.33948,-1.08465 -1.5739,-1.7715 -1.19435,-3.49956 0.25973,-1.18253 0.76893,-2.33342 1.13156,-2.55754 0.36263,-0.22412 0.65933,-1.54318 0.65933,-2.93125 0,-1.44218 0.61222,-3.30206 1.42857,-4.33988 1.25364,-1.59374 1.42857,-2.8977 1.42857,-10.64838 v -8.83224 h -2.11633 c -1.55222,0 -2.885,0.79994 -5,3.00103 -1.58602,1.65057 -2.88367,3.21646 -2.88367,3.47976 0,0.26331 -4.1948,0.71073 -9.32178,0.99428 -17.63955,0.97557 -28.36884,6.52536 -41.07142,21.24445 -6.20579,7.19093 -8.16363,11.70781 -8.1717,18.85266 -0.006,5.73995 1.31515,9.7686 4.44832,13.55965 4.70625,5.69444 15.23116,14.11788 18.7405,14.99867 0.99256,0.24912 1.80465,0.72495 1.80465,1.05742 0,0.33247 1.20536,0.82098 2.67858,1.08558 1.47321,0.26461 3.16071,0.75155 3.75,1.08208 1.46489,0.82167 1.74437,0.80017 6.11566,-0.4706 z m -160.11824,-3.29585 c 3.71857,-3.06515 4.82539,-5.85884 3.91915,-9.8922 -0.38812,-1.72738 -1.0218,-3.5216 -1.40817,-3.98717 -0.89048,-1.07296 -2.85715,-14.45011 -3.30104,-22.45345 l -0.33837,-6.10083 3.80818,-2.11345 c 2.0945,-1.1624 4.1329,-2.23288 4.52979,-2.37883 0.39689,-0.14595 1.68589,-0.67829 2.86446,-1.18298 5.17522,-2.21614 6.0316,-2.08502 9.29925,1.42391 1.6719,1.79533 3.58763,4.78528 4.25717,6.64434 1.62628,4.51553 3.479,13.49396 3.42429,16.59438 -0.065,3.68205 -1.45637,10.2591 -3.0666,14.49565 -2.04751,5.38705 -1.9036,6.93293 0.64544,6.93293 1.45883,0 2.16852,0.41667 2.43313,1.42857 0.61312,2.34455 3.08082,1.66761 7.16055,-1.96429 2.09615,-1.86607 4.71194,-4.14956 5.81286,-5.07441 1.94256,-1.6319 1.98626,-1.82172 1.48017,-6.42857 -0.28682,-2.61086 -0.62782,-10.43355 -0.75778,-17.38375 -0.12995,-6.9502 -0.53491,-13.21806 -0.8999,-13.92858 -0.36498,-0.7105 -0.85077,-3.38112 -1.07952,-5.93469 -0.4556,-5.08598 -1.86015,-8.58641 -4.65738,-11.60714 -1.70135,-1.83729 -2.20013,-1.96429 -7.71458,-1.96429 -3.2426,0 -6.07177,0.285 -6.28705,0.63332 -0.21527,0.34832 -1.54815,0.85031 -2.96195,1.11554 -2.32572,0.43631 -7.98666,2.94211 -8.87381,3.92797 -0.19643,0.21828 -1.19733,0.82906 -2.22422,1.35727 -1.02689,0.52822 -2.69972,1.73247 -3.71739,2.67611 l -1.85032,1.71571 -0.21118,-4.8201 c -0.19353,-4.41723 -0.34895,-4.83963 -1.85962,-5.05377 -0.90663,-0.12851 -2.41816,0.27068 -3.35892,0.8871 l -1.71048,1.12075 -0.21251,-4.45853 c -0.18859,-3.95682 -0.38748,-4.48342 -1.76755,-4.67993 -1.0861,-0.15465 -2.56222,0.81464 -4.89495,3.21428 -5.96567,6.13676 -5.69286,4.56534 -5.69286,32.7921 0,18.3887 0.23344,25.52778 0.87588,26.78572 0.48173,0.94327 0.96387,3.16146 1.07143,4.92932 0.1919,3.1544 0.23999,3.21219 2.58066,3.10204 1.37236,-0.0646 2.96684,-0.73665 3.75512,-1.58276 1.73385,-1.86108 3.22232,-1.31364 3.76176,1.38353 0.58358,2.91789 3.50416,2.84828 7.16686,-0.17082 z m -164.40755,-3.32187 c 0.46128,-0.46128 1.39997,-0.83869 2.08598,-0.83869 1.88042,0 11.72996,-5.29554 15.50081,-8.33392 5.74791,-4.63138 13.68048,-13.81754 13.68048,-15.8424 0,-0.38755 0.24107,-0.81177 0.53571,-0.94273 0.63557,-0.28247 3.12972,-5.36869 4.84538,-9.88095 1.56214,-4.10852 2.23459,-18.99655 1.06465,-23.57143 -2.05401,-8.03186 -2.82596,-11.99268 -2.84922,-14.61898 -0.0321,-3.62888 -1.77823,-8.31902 -4.85802,-13.04903 -2.34821,-3.60643 -7.09537,-8.04628 -8.60319,-8.04628 -0.4018,0 -0.83769,-0.24107 -0.96865,-0.53571 -0.45745,-1.02928 -7.1479,-3.90371 -9.62121,-4.13358 -1.37181,-0.12749 -2.96131,-0.61948 -3.53223,-1.0933 -1.22436,-1.01613 -13.54791,-1.08831 -14.82445,-0.0868 -0.4574,0.35885 -1.79086,0.8825 -2.96326,1.16369 -1.97151,0.47283 -6.8005,2.6664 -11.08265,5.03428 -2.70181,1.494 -12.26041,11.75537 -16.97488,18.22288 -1.21766,1.67045 -3.98828,7.12105 -5.26469,10.35715 -0.9563,2.42453 -2.76043,14.43893 -2.76043,18.38277 0,4.46546 2.06397,19.1746 2.83285,20.18865 0.29787,0.39286 0.76549,1.67858 1.03913,2.85715 0.54973,2.3676 3.24964,8.3669 4.0182,8.92857 0.26879,0.19643 0.71797,1.09163 0.99819,1.98933 0.78724,2.5219 8.65799,9.88558 12.40038,11.60146 4.9956,2.29049 6.07094,2.72937 7.63982,3.1181 2.74468,0.68006 16.80375,-0.0126 17.6613,-0.8702 z M 431.33664,244.0459 c 1.04325,-0.89643 1.89682,-2.02143 1.89682,-2.5 0,-0.47856 0.29017,-0.87011 0.64482,-0.87011 1.13404,0 5.82423,-7.73417 6.91249,-11.39876 0.57818,-1.94693 1.36431,-3.73336 1.74696,-3.96986 1.70158,-1.05162 0.30753,-10.34567 -1.55178,-10.34567 -0.46986,0 -1.38907,-0.48396 -2.04268,-1.07548 -1.04899,-0.94932 -1.43481,-0.95254 -3.28913,-0.0275 -2.88821,1.44083 -5.57187,4.42553 -7.41414,8.24583 -0.85252,1.76785 -1.86976,3.8111 -2.26054,4.54054 -0.83464,1.55799 -1.725,16.22423 -1.08602,17.88938 0.64564,1.6825 4.23326,1.41057 6.4432,-0.48838 z"
       id="path5965"
       inkscape:connector-curvature="0"
       transform="scale(0.26458333)" />
    <path
       style="fill:url(#linearGradient6076);fill-opacity:1;stroke-width:0.99999994"
       d="M 14.246094 -0.001953125 C 5.4023016 -0.014085408 2.7393315 0.3114497 1.4960938 1.5546875 C -0.52769208 3.5784355 -0.49839747 5.8576292 1.5800781 8.1542969 C 3.5802419 10.364489 5.8802049 10.485326 8.484375 8.515625 C 9.6771561 7.6134896 12.738966 7.0364758 16.425781 7.0175781 L 22.425781 6.9882812 L 37.185547 58.234375 C 45.303288 86.420315 51.940838 110.2281 51.935547 111.14062 C 51.930305 112.05319 49.225124 119.25317 45.925781 127.14062 C 42.626443 135.02805 39.926443 141.84925 39.925781 142.29883 L 39.925781 142.30273 C 39.925124 142.75212 40.713279 142.89921 41.675781 142.63086 C 42.63828 142.36244 44.391152 141.86719 45.572266 141.5293 C 47.231988 141.05459 49.049033 137.6333 53.572266 126.4668 L 59.425781 112.01953 L 122.62891 112 C 168.01221 111.98775 186.54145 111.6598 188.34961 110.83594 C 189.75174 110.19708 191.30942 108.31352 191.86523 106.58594 C 194.20595 99.310347 209.89479 23.459893 209.38867 21.865234 C 208.63747 19.498267 204.85055 19.394738 110.99609 19.15625 C 68.410479 19.048156 33.418438 18.809063 33.234375 18.625 C 33.050274 18.440899 31.813282 14.556421 30.486328 9.9921875 C 29.159336 5.4279166 27.478315 1.3152983 26.75 0.85351562 C 26.021647 0.39173295 20.394327 0.0056059301 14.246094 -0.001953125 z M 47.925781 144.59766 C 33.221378 144.59766 27.68495 163.37694 39.925781 171.73242 C 42.192644 173.27976 44.690657 173.98242 47.925781 173.98242 C 56.713058 173.98242 63.47851 166.66474 62.595703 158.11719 C 61.770935 150.13161 55.766003 144.59766 47.925781 144.59766 z M 169.30469 144.80273 C 166.65891 144.82083 164.07065 145.37911 162.23438 146.47461 C 152.61164 152.21533 152.57415 166.13811 162.16602 171.98633 L 162.16602 171.98828 C 168.35485 175.76165 176.10548 174.12263 181.30664 167.94141 C 186.5359 161.72677 184.08093 150.18114 176.7207 146.375 C 174.65397 145.30615 171.95047 144.78464 169.30469 144.80273 z M 61.992188 147.98242 L 64.144531 151.62891 L 66.296875 155.27734 L 87.861328 154.63672 C 99.721671 154.28447 119.16024 153.99206 131.05859 153.98828 C 150.75643 153.98216 152.74654 153.82583 153.30859 152.23242 C 153.64809 151.26989 154.1893 149.91992 154.50977 149.23242 C 154.97145 148.24207 145.42676 147.98242 108.54297 147.98242 L 61.992188 147.98242 z "
       transform="matrix(0.26458333,0,0,0.26458333,-105.68131,-95.11755)"
       id="path6003" />
  </g>
</svg>
